<svg xmlns="http://www.w3.org/2000/svg" viewBox="0 0 100 100">
  <defs>
    <linearGradient id="lava" x1="0%" y1="0%" x2="100%" y2="100%">
      <stop offset="0%" style="stop-color:#ff4500;stop-opacity:1" />
      <stop offset="50%" style="stop-color:#ff6600;stop-opacity:1" />
      <stop offset="100%" style="stop-color:#ffcc00;stop-opacity:1" />
    </linearGradient>
    <linearGradient id="mountain" x1="0%" y1="0%" x2="0%" y2="100%">
      <stop offset="0%" style="stop-color:#444;stop-opacity:1" />
      <stop offset="100%" style="stop-color:#1a1a1a;stop-opacity:1" />
    </linearGradient>
    <radialGradient id="glow" cx="50%" cy="20%" r="50%">
      <stop offset="0%" style="stop-color:#ff4500;stop-opacity:0.6" />
      <stop offset="100%" style="stop-color:#ff4500;stop-opacity:0" />
    </radialGradient>
  </defs>
  <!-- Eruption glow -->
  <ellipse cx="50" cy="25" rx="30" ry="25" fill="url(#glow)"/>
  <!-- Volcano body -->
  <polygon points="50,30 15,85 85,85" fill="url(#mountain)" stroke="#00ff41" stroke-width="1.5"/>
  <!-- Crater -->
  <ellipse cx="50" cy="32" rx="10" ry="4" fill="#1a1a1a" stroke="#ff4500" stroke-width="1"/>
  <!-- Lava eruption center -->
  <path d="M46,32 Q44,18 48,8 Q50,5 52,8 Q56,18 54,32" fill="url(#lava)" opacity="0.9"/>
  <!-- Lava splashes left -->
  <path d="M44,28 Q38,15 35,12" fill="none" stroke="#ff6600" stroke-width="2" stroke-linecap="round"/>
  <circle cx="35" cy="11" r="2" fill="#ffcc00"/>
  <!-- Lava splashes right -->
  <path d="M56,28 Q62,15 65,12" fill="none" stroke="#ff6600" stroke-width="2" stroke-linecap="round"/>
  <circle cx="65" cy="11" r="2" fill="#ffcc00"/>
  <!-- Green matrix-style accents on volcano -->
  <line x1="30" y1="70" x2="35" y2="60" stroke="#00ff41" stroke-width="0.5" opacity="0.4"/>
  <line x1="70" y1="70" x2="65" y2="60" stroke="#00ff41" stroke-width="0.5" opacity="0.4"/>
</svg>
